<svg version="1" xmlns="http://www.w3.org/2000/svg" width="1109.333" height="1109.333" viewBox="0 0 832.000000 832.000000"><path d="M1 416v415h831V1H1v415zm452.3-297c9.5.6 24.6 2.2 33.7 3.6 16.6 2.6 41 7 44.3 8 1.6.5 1.7 3.3 1.7 41V212h-17.9l-1.9-5.3c-13.6-35.8-14.2-37.2-18-40.5-5-4.5-17.8-10.5-28.2-13.2-11.9-3.2-40.1-4-52.2-1.5C385.7 157.3 368 179 368 209c0 30.6 18.2 55.1 77 103.9 28.7 23.8 48.6 41.8 59.7 53.9 32.7 35.7 48.9 66.6 56.5 108.2 1.8 9.8 2.1 15.5 2.2 38 .1 16.9-.4 30.3-1.3 37-11.2 87.6-57.2 139.7-131.8 149.5-21.7 2.8-52.5 1.6-74.8-3-18.5-3.9-39.2-12.5-54.5-22.8-10.2-6.9-24.5-21-31.9-31.3-14.9-21-24.6-48.8-28.2-80.4-1.5-13.5-1.5-43.5 0-57 5.8-51.3 28-93.2 65.6-123.2 17.9-14.3 46.7-28.9 70.5-35.7 4.1-1.2 8.1-2.4 8.9-2.7.9-.3-4.6-6.3-15.7-17-36.6-35.3-53-60.5-58.9-90.4-2-10.2-1.9-30.5.2-40.5 8.9-43.1 49-71.8 106.5-76.4 15.2-1.2 16.4-1.2 35.3-.1z"/><path d="M399.5 366.8c-29.2 12.2-48.3 27.1-63 49.1-19.6 29.4-29.5 69.6-29.5 119.5 0 59.8 16.4 101.8 47.7 122 13.3 8.6 25.2 12.3 42.8 13.2 25.8 1.4 46.7-5.9 62.9-22.1 18-18 28.1-43.3 33.2-83.4 2.1-16.1 2.4-56.7.5-70.1-6-43.7-24-77.7-58.7-111-10.9-10.5-23.8-21-25.6-21-.7 0-5.4 1.8-10.3 3.8z"/></svg>